<?xml version="1.0" standalone="no"?>
<!DOCTYPE svg PUBLIC "-//W3C//DTD SVG 20010904//EN"
 "http://www.w3.org/TR/2001/REC-SVG-20010904/DTD/svg10.dtd">
<svg version="1.0" xmlns="http://www.w3.org/2000/svg"
 width="260.000000pt" height="260.000000pt" viewBox="0 0 260.000000 260.000000"
 preserveAspectRatio="xMidYMid meet">
<metadata>
Created by potrace 1.11, written by Peter Selinger 2001-2013
</metadata>
<g transform="translate(0.000000,260.000000) scale(0.100000,-0.100000)"
fill="#000000" stroke="none">
<path d="M376 2283 c-4 -27 -9 -55 -11 -63 -2 -8 -10 -53 -18 -100 -9 -47 -27
-146 -42 -220 -14 -74 -27 -144 -29 -155 -2 -11 -11 -60 -21 -110 -9 -49 -19
-101 -21 -115 -4 -23 -29 -160 -41 -220 -2 -14 -10 -59 -18 -100 -8 -41 -32
-174 -55 -295 -44 -237 -43 -229 -66 -355 -8 -47 -24 -130 -35 -184 -10 -54
-19 -100 -19 -102 0 -2 585 -4 1300 -4 l1300 0 -4 28 c-3 15 -12 68 -20 117
-9 50 -18 108 -21 130 -10 65 -25 155 -31 190 -2 11 -7 40 -10 65 -3 25 -7 52
-9 60 -2 8 -6 29 -9 45 -7 47 -45 278 -67 408 -10 65 -22 136 -24 159 -3 22
-7 44 -9 47 -2 3 -7 35 -11 71 -4 36 -8 67 -10 70 -2 3 -6 26 -9 50 -4 25 -9
56 -11 70 -3 14 -7 39 -9 55 -3 17 -16 98 -30 180 -14 83 -27 164 -29 180 -3
17 -8 46 -11 65 -4 19 -8 44 -10 55 -3 20 -12 20 -943 23 l-940 2 -7 -47z
m1454 -746 l0 -73 -530 0 -530 0 0 73 0 73 530 0 530 0 0 -73z"/>
</g>
</svg>
